#!OML:ASF G:\JayActor3\Patient Classification 1\Patient 1\Session 5\male.ASF
:FULLY-SPECIFIED
:DEGREES
763
root 0.0459914 16.7055 17.2013 1.89152 -148.923 5.65513
lowerback 0.0817287 -1.17758 3.84408
upperback -0.16712 -1.5765 0.690829
thorax -0.301053 -0.80178 -1.43817
lowerneck 0.876207 -2.14561 -0.096892
upperneck 3.2496 -3.09624 4.58934
head 0.934689 -1.55166 1.41728
rclavicle 6.44808e-014 -5.96354e-015
rhumerus -35.2822 -18.5554 -80.855
rradius 14.1909
rwrist 23.9829
rhand -16.3768 -4.33043
rfingers 7.12502
rthumb 9.83662 -34.0807
lclavicle 6.44808e-014 -5.96354e-015
lhumerus -35.4699 27.5797 73.42
lradius 9.99683
lwrist 1.1043
lhand -21.9098 15.3431
lfingers 7.12502
lthumb 4.49588 45.2753
rfemur -11.2209 11.2614 28.6608
rtibia 36.6787
rfoot -31.5204 -17.5426
rtoes -2.04355
lfemur -2.30095 4.57472 -16.4408
ltibia 22.7611
lfoot -25.9199 6.88332
ltoes -0.454537
764
root 0.0164904 16.6906 17.1648 2.1367 -148.965 5.55782
lowerback 0.0548613 -1.14522 3.73193
upperback -0.210179 -1.533 0.671965
thorax -0.325417 -0.780457 -1.39515
lowerneck 0.836745 -2.0886 -0.0226304
upperneck 3.23803 -3.01543 4.5047
head 0.932588 -1.51003 1.37788
rclavicle 3.34455e-014 1.47101e-014
rhumerus -35.2872 -18.5415 -80.8584
rradius 14.1852
rwrist 23.9836
rhand -16.3555 -4.2639
rfingers 7.12502
rthumb 9.85719 -34.0132
lclavicle 3.34455e-014 1.47101e-014
lhumerus -35.3165 27.2105 73.7241
lradius 10.0298
lwrist 1.52729
lhand -21.8992 15.5206
lfingers 7.12502
lthumb 4.5061 45.4526
rfemur -11.5816 11.194 28.5317
rtibia 37.2873
rfoot -31.6626 -17.5703
rtoes -3.15496
lfemur -2.30254 5.00169 -16.491
ltibia 22.7288
lfoot -26.1473 6.8085
ltoes -1.05846
765
root -0.0115342 16.6764 17.1284 2.4199 -149.02 5.42487
lowerback 0.047101 -1.11366 3.57353
upperback -0.259796 -1.48932 0.643208
thorax -0.366415 -0.759092 -1.3359
lowerneck 0.807343 -2.0329 0.0622834
upperneck 3.19487 -2.93465 4.42028
head 0.918894 -1.46878 1.33696
rclavicle -5.73742e-014 3.97569e-015
rhumerus -35.2858 -18.5327 -80.8718
rradius 14.1877
rwrist 23.989
rhand -16.3388 -4.2348
rfingers 7.12502
rthumb 9.87332 -33.9833
lclavicle -5.73742e-014 3.97569e-015
lhumerus -35.3055 27.2343 73.7059
lradius 10.075
lwrist 1.51089
lhand -21.7846 15.6474
lfingers 7.12502
lthumb 4.61677 45.5771
rfemur -12.0484 11.0749 28.3651
rtibia 38.0327
rfoot -31.7786 -17.5235
rtoes -4.18941
lfemur -2.30646 5.48418 -16.5621
ltibia 22.6512
lfoot -26.3629 6.71451
ltoes -1.6971
766
root -0.0385927 16.6626 17.0919 2.73724 -149.097 5.24431
lowerback 0.0646991 -1.08115 3.36346
upperback -0.313202 -1.44309 0.600802
thorax -0.424631 -0.736356 -1.26118
lowerneck 0.783023 -1.9738 0.1511
upperneck 3.13239 -2.84856 4.34013
head 0.898393 -1.42512 1.29693
rclavicle 1.04983e-013 -7.95139e-016
rhumerus -35.2833 -18.5401 -80.8877
rradius 14.1988
rwrist 24.0058
rhand -16.3336 -4.13991
rfingers 7.12502
rthumb 9.87835 -33.8882
lclavicle 1.04983e-013 -7.95139e-016
lhumerus -35.2761 27.1861 73.7194
lradius 10.131
lwrist 1.55302
lhand -21.6868 15.7657
lfingers 7.12502
lthumb 4.71121 45.6934
rfemur -12.6091 10.93 28.1529
rtibia 38.9306
rfoot -31.8704 -17.4192
rtoes -5.30653
lfemur -2.29572 6.02187 -16.6684
ltibia 22.5227
lfoot -26.5704 6.60636
ltoes -2.38278
767
root -0.0648277 16.6493 17.0554 3.08515 -149.198 5.01989
lowerback 0.113755 -1.0495 3.10676
upperback -0.373306 -1.39686 0.547565
thorax -0.50672 -0.7136 -1.17076
lowerneck 0.77311 -1.90813 0.232767
upperneck 3.04484 -2.75279 4.27183
head 0.867981 -1.37715 1.26216
rclavicle 1.02126e-014 1.27222e-014
rhumerus -35.2807 -18.5455 -80.9101
rradius 14.2184
rwrist 24.009
rhand -16.3409 -4.02177
rfingers 7.12502
rthumb 9.87131 -33.7704
lclavicle 1.02126e-014 1.27222e-014
lhumerus -35.2458 27.0938 73.7493
lradius 10.19
lwrist 1.59523
lhand -21.6262 15.8523
lfingers 7.12502
lthumb 4.7697 45.7786
rfemur -13.2625 10.7912 27.9007
rtibia 39.9899
rfoot -31.9176 -17.3059
rtoes -6.66194
lfemur -2.26533 6.61782 -16.8111
ltibia 22.3385
lfoot -26.7584 6.51803
ltoes -3.2252
768
root -0.0906561 16.6364 17.0188 3.45357 -149.332 4.76027
lowerback 0.195835 -1.0155 2.81606
upperback -0.437889 -1.34693 0.483155
thorax -0.611521 -0.688864 -1.07213
lowerneck 0.771038 -1.8349 0.314867
upperneck 2.94016 -2.64621 4.20675
head 0.830961 -1.32409 1.22852
rclavicle -5.31501e-014 1.39149e-014
rhumerus -35.2772 -18.5493 -80.9419
rradius 14.2442
rwrist 23.9932
rhand -16.3446 -4.00445
rfingers 7.12502
rthumb 9.86766 -33.7532
lclavicle -5.31501e-014 1.39149e-014
lhumerus -35.176 26.8374 73.8588
lradius 10.247
lwrist 1.74732
lhand -21.602 15.9023
lfingers 7.12502
lthumb 4.79313 45.8281
rfemur -13.9997 10.6858 27.6155
rtibia 41.2106
rfoot -31.8757 -17.2387
rtoes -8.44759
lfemur -2.20542 7.26982 -16.9829
ltibia 22.0985
lfoot -26.9283 6.41282
ltoes -4.11831
769
root -0.11705 16.6242 16.9815 3.82966 -149.508 4.47455
lowerback 0.307903 -0.975956 2.50823
upperback -0.503016 -1.28974 0.407673
thorax -0.73365 -0.660258 -0.974868
lowerneck 0.779738 -1.75523 0.397331
upperneck 2.81674 -2.53042 4.14841
head 0.786491 -1.26682 1.19713
rclavicle 7.17364e-014 6.36111e-015
rhumerus -35.2721 -18.5419 -80.9863
rradius 14.2741
rwrist 23.9444
rhand -16.3479 -4.03817
rfingers 7.12502
rthumb 9.86456 -33.7871
lclavicle 7.17364e-014 6.36111e-015
lhumerus -35.0907 26.4924 74.0051
lradius 10.2859
lwrist 1.91535
lhand -21.6471 15.8868
lfingers 7.12502
lthumb 4.74954 45.8135
rfemur -14.8037 10.6238 27.2987
rtibia 42.5858
rfoot -31.7926 -17.1102
rtoes -10.3849
lfemur -2.1034 7.95372 -17.1813
ltibia 21.807
lfoot -27.087 6.27887
ltoes -4.9499
